<svg width="156" height="156" viewBox="0 0 156 156" fill="none" xmlns="http://www.w3.org/2000/svg">
<path d="M137.218 63.5761C135.28 62.0704 133.193 60.7682 130.989 59.6901C127.712 55.9023 123.601 52.9264 118.979 50.9967C114.608 49.1744 109.609 47.6954 106.189 44.275L88.265 26.3509C85.0484 23.1349 81.1784 20.6475 76.9169 19.0571C72.6554 17.4668 68.102 16.8107 63.5649 17.1331C59.0278 17.4556 54.613 18.7491 50.6193 20.9261C46.6256 23.1032 43.1462 26.1129 40.4168 29.7515L20.7082 56.0316H18.2721C17.949 56.0316 17.6392 55.9033 17.4107 55.6749C17.1823 55.4464 17.054 55.1366 17.054 54.8135C17.0521 53.1988 16.4099 51.6508 15.2681 50.509C14.1263 49.3672 12.5783 48.725 10.9636 48.7231H7.3093C6.82746 48.7231 6.35644 48.866 5.9558 49.1337C5.55515 49.4014 5.24289 49.7818 5.0585 50.227C4.8741 50.6722 4.82586 51.162 4.91986 51.6346C5.01387 52.1072 5.24591 52.5413 5.58663 52.882C6.13449 53.4268 6.56884 54.0749 6.86454 54.7887C7.16024 55.5025 7.31141 56.2679 7.3093 57.0405V60.904C7.31221 63.4875 8.3398 65.9644 10.1667 67.7913C11.9935 69.6181 14.4704 70.6457 17.054 70.6486H19.4901C19.4901 76.1769 22.2823 81.8568 24.0111 87.0437L17.7684 93.2864C17.4067 93.6479 17.168 94.1141 17.086 94.6188C17.004 95.1235 17.083 95.6413 17.3116 96.0987L22.1839 105.843C22.3861 106.248 22.697 106.589 23.0817 106.827C23.4665 107.065 23.91 107.191 24.3625 107.191H29.2348V114.5C26.3429 114.464 23.4963 113.776 20.9071 112.487C14.5328 109.305 9.74547 101.451 9.74547 94.3556C9.79475 90.5717 11.0198 86.8968 13.2508 83.8402L17.3829 78.3308L13.485 75.4074L9.35142 80.9192C6.4699 84.8089 4.90141 89.5149 4.87314 94.3556C4.87314 103.369 10.6557 112.816 18.7288 116.844C22.0582 118.501 25.7258 119.367 29.4449 119.372H31.671C32.3171 119.372 32.9367 119.115 33.3936 118.658C33.8505 118.202 34.1071 117.582 34.1071 116.936V104.755C34.1071 104.109 33.8505 103.489 33.3936 103.032C32.9367 102.575 32.3171 102.319 31.671 102.319H25.868L22.4543 95.4914L25.7328 92.2121L26.9235 95.7807C27.0852 96.2658 27.3954 96.6877 27.8103 96.9867C28.2251 97.2857 28.7235 97.4465 29.2348 97.4465H38.9795C40.9171 97.4442 42.7747 96.6735 44.1449 95.3034C45.515 93.9332 46.2857 92.0756 46.288 90.138V88.8639L51.1603 90.8128V97.7181C51.1603 109.351 63.6904 121.808 75.2503 121.808C79.0859 121.812 82.8363 120.676 86.0255 118.546L89.0543 116.527C89.3299 116.343 89.5652 116.105 89.7457 115.827C89.9261 115.549 90.0481 115.237 90.104 114.911C90.1599 114.584 90.1487 114.25 90.0709 113.928C89.9931 113.606 89.8505 113.303 89.6517 113.038L82.3432 103.293C82.1338 103.014 81.8669 102.783 81.5604 102.616C81.2539 102.449 80.9152 102.35 80.567 102.325C80.2188 102.3 79.8694 102.35 79.5424 102.473C79.2154 102.595 78.9184 102.785 78.6716 103.032L75.522 106.182L68.4751 99.1353L70.1155 92.5741H100.847C104.965 100.045 111.496 105.896 119.373 109.171V113.379C114.84 117.264 110.009 120.8 105.655 124.893C103.931 126.482 102.401 128.268 101.096 130.216C100.813 130.639 99.0462 133.989 98.58 133.989H87.9342C88.5068 131.014 90.1244 128.341 92.4951 126.454C92.534 126.423 92.5721 126.39 92.6093 126.357L106.392 113.869C106.674 113.614 106.892 113.296 107.029 112.941C107.166 112.586 107.218 112.204 107.181 111.825C107.143 111.447 107.018 111.082 106.815 110.761C106.611 110.439 106.335 110.17 106.009 109.974C101.077 107.024 97.4558 102.304 95.8832 96.7765L91.1987 98.1164C92.8049 103.764 96.1818 108.747 100.832 112.332L89.3914 122.698C87.3381 124.348 85.6823 126.438 84.5465 128.814C83.4108 131.19 82.8243 133.791 82.8305 136.425C82.8305 137.071 83.0871 137.691 83.544 138.148C84.0009 138.605 84.6205 138.861 85.2666 138.861H99.8836C100.285 138.861 100.679 138.762 101.033 138.573C101.387 138.384 101.688 138.11 101.911 137.777L106.597 130.747L123.394 116.349C123.661 116.121 123.876 115.837 124.022 115.518C124.169 115.198 124.245 114.851 124.245 114.5V110.818C127.381 111.646 130.61 112.065 133.853 112.063H133.99V115.927L123.53 126.386C120.869 129.049 119.374 132.66 119.373 136.425C119.373 137.071 119.63 137.691 120.087 138.148C120.543 138.605 121.163 138.861 121.809 138.861H136.426C136.827 138.861 137.222 138.762 137.576 138.573C137.929 138.384 138.231 138.11 138.453 137.777L143.192 130.67L150.33 123.532C150.556 123.305 150.735 123.037 150.858 122.741C150.98 122.445 151.043 122.128 151.043 121.808V91.8463C151.061 86.3896 149.823 81.0019 147.425 76.0999C145.028 71.1979 141.536 66.9129 137.218 63.5761ZM146.171 91.8463V98.0251L144.265 95.7384C143.857 95.2478 143.478 94.7521 143.13 94.2593C143.005 93.5909 142.909 92.9432 142.848 92.3302L142.352 87.3629C141.977 83.6741 140.794 80.1131 138.888 76.933C138.775 76.7454 138.663 76.5658 138.553 76.3904C138.242 74.1293 137.692 71.9076 136.912 69.7628C139.856 72.6362 142.192 76.0716 143.782 79.8651C145.373 83.6586 146.185 87.7329 146.171 91.8463ZM17.054 65.7763C15.7622 65.7748 14.5238 65.2609 13.6104 64.3475C12.697 63.4341 12.1832 62.1957 12.1816 60.904V57.0405C12.1829 55.9572 12.021 54.8799 11.7014 53.8449C11.8506 53.9585 11.9716 54.105 12.0549 54.273C12.1382 54.441 12.1816 54.626 12.1816 54.8135C12.1835 56.4283 12.8258 57.9763 13.9675 59.1181C15.1093 60.2598 16.6573 60.9021 18.2721 60.904H19.4901V65.7763H17.054ZM146.171 120.799C143.632 123.338 140.765 125.771 138.66 128.684C137.417 130.403 136.299 132.224 135.122 133.989H124.569C124.673 133.603 124.802 133.225 124.955 132.856C125.423 131.724 126.109 130.696 126.976 129.832L138.149 118.658C138.375 118.432 138.554 118.164 138.677 117.868C138.799 117.573 138.862 117.256 138.862 116.936V109.627C138.862 108.981 138.606 108.362 138.149 107.905C137.692 107.448 137.072 107.191 136.426 107.191H133.853C125.856 107.146 118.142 104.226 112.119 98.9648C108.983 96.1975 106.408 92.8535 104.534 89.1145C102.012 82.9866 101.404 75.7055 101.399 75.6324L96.5412 76.0173C96.9168 79.98 97.6915 83.8947 98.8535 87.7018H74.2591C76.6649 84.456 77.9619 80.5219 77.9581 76.4817V75.521H73.0858V76.4817C73.0882 78.7831 72.5212 81.0494 71.4353 83.0785C70.3493 85.1076 68.7782 86.8365 66.862 88.1111C66.3578 88.4473 65.997 88.9593 65.8501 89.5472L63.4139 99.2919C63.3116 99.7 63.3167 100.128 63.4287 100.533C63.5408 100.939 63.756 101.309 64.0534 101.606L73.7981 111.351C74.0243 111.577 74.2929 111.757 74.5884 111.879C74.884 112.001 75.2008 112.064 75.5208 112.064C75.8407 112.064 76.1575 112.001 76.4531 111.879C76.7486 111.757 77.0172 111.577 77.2434 111.351L80.1297 108.465L84.2072 113.902L83.3214 114.493C80.9324 116.088 78.1233 116.939 75.2503 116.936C66.298 116.936 56.0326 106.614 56.0326 97.7181V80.3933H51.1603V85.5653L46.288 83.6163V81.4022L50.4468 77.2436C50.673 77.0174 50.8525 76.7488 50.9749 76.4533C51.0973 76.1577 51.1603 75.8409 51.1603 75.521V70.6486H53.5965C56.18 70.6457 58.6569 69.6181 60.4838 67.7913C62.3106 65.9644 63.3382 63.4875 63.3411 60.904V57.0405C63.339 56.2679 63.4902 55.5025 63.7859 54.7887C64.0816 54.0749 64.5159 53.4268 65.0638 52.882C65.4045 52.5413 65.6366 52.1072 65.7306 51.6346C65.8246 51.162 65.7763 50.6722 65.5919 50.227C65.4076 49.7818 65.0953 49.4014 64.6946 49.1337C64.294 48.866 63.823 48.7231 63.3411 48.7231H59.6869C58.0722 48.725 56.5241 49.3672 55.3824 50.509C54.2406 51.6508 53.5983 53.1988 53.5965 54.8135C53.5965 55.1366 53.4681 55.4464 53.2397 55.6749C53.0113 55.9033 52.7014 56.0316 52.3784 56.0316H46.288C44.3496 56.0316 42.4907 56.8016 41.1201 58.1722C39.7495 59.5428 38.9795 61.4018 38.9795 63.3401C38.9795 65.2785 39.7495 67.1374 41.1201 68.508C42.4907 69.8786 44.3496 70.6486 46.288 70.6486V74.5121L42.1291 78.6706C41.9029 78.8968 41.7235 79.1654 41.6011 79.461C41.4786 79.7566 41.4156 80.0734 41.4156 80.3933V90.138C41.4149 90.7839 41.158 91.4031 40.7013 91.8598C40.2446 92.3165 39.6254 92.5734 38.9795 92.5741H30.991L24.3625 72.6889V59.2796L44.315 32.6749C46.8255 29.3443 50.0733 26.6405 53.8038 24.7755C57.5343 22.9105 61.6462 21.9349 65.8169 21.9253C72.9437 21.9276 79.7781 24.7587 84.819 29.7965L102.743 47.7203C106.637 51.6146 112.13 53.4201 117.105 55.4941C121.584 57.3606 125.487 60.3812 128.418 64.2481C131.348 68.115 133.201 72.6898 133.787 77.5061C133.789 77.5314 133.792 77.5567 133.795 77.582C134.367 82.0018 134.124 86.1329 135.672 90.4096C137.757 96.1681 142.261 100.946 146.17 105.636V120.798L146.171 120.799ZM46.288 65.7763C45.6419 65.7763 45.0222 65.5196 44.5653 65.0628C44.1085 64.6059 43.8518 63.9862 43.8518 63.3401C43.8518 62.694 44.1085 62.0744 44.5653 61.6175C45.0222 61.1606 45.6419 60.904 46.288 60.904H52.3784C53.9931 60.9021 55.5411 60.2598 56.6829 59.1181C57.8247 57.9763 58.4669 56.4283 58.4688 54.8135C58.4689 54.626 58.5123 54.441 58.5956 54.273C58.6789 54.105 58.7998 53.9585 58.949 53.8449C58.6294 54.8799 58.4675 55.9572 58.4688 57.0405V60.904C58.4673 62.1957 57.9534 63.4341 57.04 64.3475C56.1266 65.2609 54.8882 65.7748 53.5965 65.7763H46.288Z" fill="black"/>
<path d="M109.628 75.521H107.191C107.316 79.2819 108.234 82.974 109.885 86.3553L114.243 84.1761C112.933 81.4677 112.192 78.5202 112.064 75.5146L109.628 75.521Z" fill="black"/>
<path d="M64.9443 66.8517C64.9629 66.8903 66.79 70.7535 64.951 74.4312L69.309 76.6103C72.2559 70.7163 69.4308 64.9301 69.309 64.6865L64.9443 66.8517Z" fill="black"/>
<path d="M90.1384 75.521H85.2661V80.3933H90.1384V75.521Z" fill="black"/>
<path d="M91.4895 49.1323L88.7866 53.1861C88.8475 53.2278 95.0104 57.6976 95.0104 70.6486H99.8827C99.8827 54.9085 91.8321 49.3607 91.4895 49.1323Z" fill="black"/>
<path d="M79.419 49.2104L76.4956 53.1083C76.5833 53.1741 85.2658 59.8114 85.2658 70.6487H90.1381C90.1381 57.4021 79.8566 49.5387 79.419 49.2104Z" fill="black"/>
</svg>
