<svg width="156" height="156" viewBox="0 0 156 156" fill="none" xmlns="http://www.w3.org/2000/svg">
<path d="M139.021 16.7942C137.24 13.2035 134.488 10.1835 131.079 8.07636C127.669 5.96925 123.737 4.85927 119.729 4.87218H119.653C116.166 4.87296 112.731 5.71879 109.642 7.33725C106.554 8.95571 103.903 11.2986 101.918 14.1652L99.1918 18.1024L103.198 20.876L105.924 16.9388C107.46 14.7197 109.512 12.906 111.903 11.6531C114.294 10.4002 116.953 9.74529 119.653 9.74452H119.729C122.832 9.73455 125.875 10.5938 128.515 12.2249C131.154 13.856 133.284 16.1938 134.663 18.9733C135.819 21.2934 136.422 23.8494 136.426 26.4414V102.203C134.773 102.043 133.141 101.718 131.553 101.234V85.2657H126.681V99.1604C124.92 98.1764 123.284 96.9837 121.809 95.6081V80.3933H116.936V90.8871L114.434 84.6326L114.141 82.5713C114.136 82.5366 114.13 82.5019 114.124 82.4671L112.055 67.9777L110.983 46.9962C110.978 46.9033 110.967 46.8107 110.952 46.7188C110.484 43.872 109.018 41.2848 106.816 39.4203C104.614 37.5557 101.821 36.5355 98.936 36.5423H97.4469V19.2669C97.4426 15.4505 95.9247 11.7917 93.2262 9.09312C90.5276 6.39452 86.8688 4.87653 83.0525 4.87218C78.9137 4.87218 74.5801 4.93857 71.4219 8.08427C69.8472 9.65397 68.7903 11.6678 68.3931 13.8555C66.3956 11.0765 63.7656 8.81245 60.7204 7.25044C57.6752 5.68843 54.302 4.87323 50.8795 4.87218H50.8034V9.74452H50.8795C53.5788 9.74526 56.2377 10.4001 58.6286 11.653C61.0195 12.9059 63.0711 14.7195 64.608 16.9385L66.5672 19.769L66.034 20.8349C65.8054 21.2922 65.7265 21.81 65.8084 22.3147C65.8904 22.8195 66.1292 23.2856 66.4908 23.6471L68.2129 25.3704V29.2338C68.2129 29.88 68.4695 30.4996 68.9264 30.9565C69.3833 31.4133 70.0029 31.67 70.649 31.67H75.5214V36.5423H65.1616C63.2794 36.5498 61.4242 36.9905 59.7396 37.8301C58.0551 38.6697 56.5864 39.8858 55.4474 41.3842L54.6982 38.3874C54.5493 37.7884 54.1775 37.2687 53.6586 36.9343C54.9657 35.1423 55.7644 33.0305 55.9703 30.8221C56.1761 28.6137 55.7814 26.3906 54.828 24.388C54.6296 23.9705 54.316 23.6185 53.924 23.3736C53.532 23.1286 53.0781 23.001 52.6159 23.0058C52.9348 20.6838 52.5792 18.3192 51.5915 16.1937C51.4557 15.9011 51.2631 15.6385 51.025 15.421C50.7868 15.2035 50.5079 15.0354 50.2043 14.9266C49.9007 14.8177 49.5785 14.7702 49.2564 14.7868C48.9343 14.8034 48.6187 14.8838 48.328 15.0234L47.5548 15.3943C47.6596 12.5633 46.7769 9.78388 45.0577 7.53217C44.8614 7.27536 44.616 7.06017 44.3357 6.89915C44.0555 6.73813 43.746 6.63449 43.4253 6.59428C43.1045 6.55406 42.779 6.57807 42.4677 6.6649C42.1563 6.75173 41.8654 6.89966 41.6118 7.10006L40.1013 8.29378C38.9507 9.20326 37.9762 10.3155 37.2257 11.5756C36.324 9.80725 34.9982 8.2899 33.3667 7.15922C31.7352 6.02855 29.849 5.31979 27.8766 5.09631L25.9816 4.8871C25.3422 4.81936 24.7018 5.00599 24.1988 5.40664C23.6959 5.8073 23.3708 6.38979 23.2939 7.02819L23.2897 7.06656C23.0907 8.91742 23.3174 10.7893 23.9527 12.5391C24.5879 14.2888 25.6148 15.8702 26.9549 17.1623C26.2164 17.4098 25.5036 17.7283 24.8266 18.1134L23.1575 19.0629C22.6011 19.3793 22.1916 19.9021 22.0175 20.5181C21.8435 21.1341 21.9189 21.7939 22.2275 22.3547C23.3939 24.4943 25.1854 26.227 27.3626 27.3215L26.3288 28.0852C25.8144 28.4652 25.4701 29.0323 25.3702 29.6639C25.2703 30.2956 25.4227 30.9412 25.7946 31.4614C27.1184 33.3257 28.9497 34.7705 31.0708 35.6242L32.0306 37.318L29.6316 38.8872C30.5924 40.3568 31.8651 41.597 33.3591 42.5195C34.8531 43.4421 36.5319 44.0244 38.2763 44.2251L43.8232 69.5789C44.1156 70.9215 44.7244 72.1748 45.5988 73.2346C46.4733 74.2945 47.5881 75.1302 48.8507 75.6723C50.1133 76.2144 51.487 76.4473 52.8577 76.3514C54.2284 76.2555 55.5564 75.8338 56.7312 75.1212C57.0552 76.3155 57.3728 77.5238 57.6847 78.7383L55.2975 85.5568C54.8376 86.8753 54.2684 88.153 53.5959 89.3767V80.3933H48.7235V95.6081C47.2481 96.9837 45.6122 98.1764 43.8512 99.1604V85.2657H38.9789V101.234C37.391 101.718 35.7588 102.043 34.1065 102.203V46.287H29.2342V104.755C29.2342 105.401 29.4909 106.021 29.9477 106.478C30.4046 106.935 31.0243 107.191 31.6704 107.191C37.8104 107.192 43.8016 105.302 48.8299 101.778C53.8582 98.2547 57.6797 93.2683 59.7749 87.4969C60.1857 89.3493 60.5819 91.2035 60.9516 93.0517L65.7295 92.0967C64.8534 87.7159 63.8558 83.3034 62.7674 78.9639L67.2311 66.2143C67.2996 66.02 69.1167 61.9644 70.2927 60.3273C70.3814 60.3909 71.6244 61.3136 71.6244 61.3136C70.9254 67.7487 70.5997 74.219 70.649 80.6918V137.356L63.9152 140.723C62.8178 141.272 61.9379 142.175 61.4179 143.286C60.898 144.398 60.7685 145.652 61.0504 146.846C61.3323 148.04 62.0091 149.104 62.9712 149.866C63.9333 150.628 65.1243 151.042 66.3513 151.042H109.628C110.08 151.042 110.524 150.916 110.908 150.678C111.293 150.44 111.604 150.1 111.807 149.696C112.009 149.291 112.095 148.838 112.054 148.387C112.013 147.937 111.848 147.506 111.577 147.144C107.162 141.234 104.77 134.058 104.755 126.681V107.191H99.883V126.681C99.8974 133.521 101.699 140.24 105.11 146.17H75.5214V80.6918C75.4677 73.9371 75.8354 67.1857 76.6225 60.4768C76.917 57.9547 73.2496 56.8889 71.9433 55.239C71.1076 54.1822 70.6518 52.8751 70.649 51.5278C70.649 51.4471 70.6509 51.3646 70.656 51.2629C70.7086 50.0608 71.1235 48.9027 71.8461 47.9406L76.0875 42.2838L82.8299 46.7779V53.5955C82.8299 54.2416 83.0865 54.8613 83.5434 55.3181C84.0003 55.775 84.6199 56.0317 85.266 56.0317C87.9972 56.0336 90.6489 55.1128 92.7911 53.4186L94.4504 54.5255L90.3126 64.8716C90.1185 65.3569 90.0856 65.8918 90.2189 66.3972C90.3521 66.9027 90.6444 67.3518 91.0526 67.6784C97.0769 72.4996 99.8837 79.9478 99.8837 91.1186V102.319H104.756V99.8827H116.937C117.541 99.8825 118.124 99.6576 118.572 99.2517C124.085 104.374 131.337 107.212 138.862 107.191C139.508 107.191 140.127 106.935 140.584 106.478C141.041 106.021 141.298 105.401 141.298 104.755V26.4414C141.294 23.0931 140.514 19.7912 139.021 16.7942ZM77.9575 26.7977H73.0852V24.3615C73.0852 24.0416 73.0222 23.7248 72.8998 23.4292C72.7774 23.1336 72.5979 22.8651 72.3717 22.6388L71.1771 21.4442L72.8279 18.1426C73.1781 17.4422 73.0852 16.5941 73.0852 15.8349C73.0833 15.0356 73.2396 14.2437 73.5452 13.505C73.8508 12.7664 74.2996 12.0955 74.8657 11.5311C75.0854 11.3155 75.3208 11.1164 75.5698 10.9355L82.8299 18.0744V36.5423H80.3937V29.2338C80.3937 28.5877 80.137 27.9681 79.6802 27.5112C79.2233 27.0543 78.6036 26.7977 77.9575 26.7977ZM66.5989 55.6599C66.7262 55.9691 66.8676 56.2719 67.0231 56.5686C66.3551 57.4194 65.7367 58.308 65.171 59.2301L66.5989 55.6599ZM47.996 35.7457C47.8679 34.4417 48.0903 33.1271 48.6402 31.9378C49.1901 30.7485 50.0476 29.7275 51.1241 28.9805C51.2522 30.2844 51.0299 31.5988 50.4802 32.7881C49.9306 33.9774 49.0734 34.9984 47.9973 35.7457H47.996ZM28.0466 21.9521C29.4908 21.3555 31.0942 21.2643 32.5967 21.6933C33.6191 21.9808 34.5634 22.4953 35.3593 23.1986C33.915 23.795 32.3115 23.8862 30.8089 23.4574C29.7866 23.1698 28.8424 22.6553 28.0466 21.9521ZM36.0348 29.5652C37.0752 29.7285 38.0655 30.124 38.9323 30.7223C37.5636 31.4946 35.9733 31.7793 34.4217 31.5299C33.3812 31.3667 32.3909 30.9712 31.5242 30.3728C32.8933 29.6005 34.484 29.3157 36.036 29.5649L36.0348 29.5652ZM44.6332 27.4734C44.5192 26.168 44.756 24.8558 45.3192 23.6726C45.8824 22.4894 46.7514 21.4782 47.8365 20.7435C47.9504 22.0487 47.7136 23.3607 47.1507 24.5438C46.5878 25.7269 45.7191 26.7382 44.6344 27.4731L44.6332 27.4734ZM42.3746 12.7995C42.7594 14.0522 42.8052 15.3846 42.5073 16.6609C42.2094 17.9371 41.5784 19.1115 40.6787 20.0644C40.294 18.8115 40.2484 17.479 40.5465 16.2027C40.8447 14.9264 41.4759 13.752 42.3758 12.7992L42.3746 12.7995ZM33.503 15.4305C32.2342 15.099 31.0795 14.4287 30.1623 13.4916C29.2451 12.5544 28.5999 11.3855 28.2957 10.1099C29.5648 10.4409 30.72 11.1108 31.6375 12.048C32.555 12.9852 33.2003 14.1544 33.5042 15.4302L33.503 15.4305ZM39.5118 37.4194C40.3613 37.6589 41.1584 38.0557 41.8618 38.589L39.6762 39.026C39.3672 39.0883 39.0732 39.2099 38.8105 39.3841C37.3878 39.2148 36.0495 38.6196 34.9711 37.6764C36.4129 37.0816 38.0132 36.9909 39.513 37.4191L39.5118 37.4194ZM52.8802 71.4465C51.9275 71.6054 50.9502 71.392 50.1504 70.8505C49.3505 70.3089 48.7895 69.4807 48.5832 68.5371L43.1645 43.7711C43.9008 43.5417 44.6128 43.2407 45.2904 42.8724L50.536 41.8233L51.935 47.4186L48.8103 48.9808C48.5137 49.1292 48.2505 49.3365 48.0368 49.5902C47.8232 49.8439 47.6635 50.1385 47.5677 50.456C47.4719 50.7735 47.442 51.1073 47.4797 51.4368C47.5174 51.7663 47.6221 52.0846 47.7871 52.3723L55.5271 65.8583C55.8296 66.3851 56 66.9774 56.0239 67.5844C56.0478 68.1914 55.9245 68.7952 55.6644 69.3443C55.4044 69.8933 55.0153 70.3713 54.5305 70.7373C54.0457 71.1034 53.4795 71.3467 52.8802 71.4465ZM65.7767 145.595C65.7764 145.488 65.806 145.383 65.8621 145.292C65.9182 145.201 65.9987 145.128 66.0943 145.08L70.649 142.803V146.17H66.3519C66.1995 146.17 66.0533 146.109 65.9455 146.001C65.8376 145.893 65.7769 145.747 65.7767 145.595ZM67.9473 45.0184C67.2473 45.9498 66.7028 46.9885 66.3349 48.094C66.2655 48.302 66.2052 48.5125 66.1485 48.7238H65.7767C65.2898 48.7238 64.8141 48.8697 64.4109 49.1426C64.0077 49.4156 63.6955 49.8032 63.5147 50.2552L58.8641 61.8827L56.5497 57.8491C56.1234 56.6005 55.6885 55.3602 55.2506 54.136L58.3409 46.0967C58.8765 44.7218 59.8135 43.54 61.03 42.705C62.2465 41.8699 63.6861 41.4203 65.1616 41.4147H70.649L67.9473 45.0184ZM87.7022 50.7419V17.053C87.702 16.7299 87.6376 16.41 87.5126 16.112C87.3876 15.814 87.2045 15.5438 86.9741 15.3172L81.3073 9.74452H83.0516C85.5764 9.74677 87.9972 10.7507 89.7826 12.536C91.568 14.3213 92.5721 16.742 92.5745 19.2669V43.8508C92.5728 45.3618 92.1035 46.8353 91.2312 48.069C90.3589 49.3028 89.1262 50.2364 87.7022 50.7419ZM95.4839 65.0619L96.4751 62.5835L97.171 66.7575C96.6379 66.1694 96.0755 65.6042 95.4839 65.0619ZM106.753 95.0104L104.722 84.8543C103.332 75.13 101.994 65.3954 100.428 55.6976C100.209 54.3513 100.058 52.4365 98.8227 51.5866C98.8148 51.5808 98.8072 51.5747 98.7989 51.5692L95.9611 49.6766C96.9384 47.8906 97.4494 45.8868 97.4469 43.8508V41.4147H98.936C100.645 41.4103 102.302 42.0068 103.616 43.1001C104.931 44.1933 105.819 45.7137 106.126 47.3955C106.126 47.3955 107.207 68.4838 107.217 68.5569C107.217 68.5569 109.731 85.9901 109.803 86.1704L113.338 95.0104H106.753Z" fill="black"/>
<path d="M107.191 21.9255V24.3617C107.193 25.8725 107.663 27.3456 108.535 28.5791C109.407 29.8126 110.64 30.746 112.064 31.2512V31.6702C112.064 33.6085 112.834 35.4675 114.204 36.8381C115.575 38.2087 117.434 38.9787 119.372 38.9787C121.311 38.9787 123.17 38.2087 124.54 36.8381C125.911 35.4675 126.681 33.6085 126.681 31.6702V31.2512C128.105 30.746 129.337 29.8126 130.209 28.5791C131.082 27.3456 131.551 25.8725 131.553 24.3617V21.9255H126.681V24.3617C126.681 25.0078 126.424 25.6275 125.967 26.0843C125.51 26.5412 124.891 26.7979 124.245 26.7979C123.598 26.7979 122.979 26.5412 122.522 26.0843C122.065 25.6275 121.808 25.0078 121.808 24.3617V21.9255H116.936V24.3617C116.936 25.0078 116.679 25.6275 116.223 26.0843C115.766 26.5412 115.146 26.7979 114.5 26.7979C113.854 26.7979 113.234 26.5412 112.777 26.0843C112.32 25.6275 112.064 25.0078 112.064 24.3617V21.9255H107.191ZM119.372 29.8032C120.082 30.4401 120.91 30.932 121.808 31.2512V31.6702C121.808 32.3163 121.552 32.936 121.095 33.3928C120.638 33.8497 120.018 34.1064 119.372 34.1064C118.726 34.1064 118.106 33.8497 117.65 33.3928C117.193 32.936 116.936 32.3163 116.936 31.6702V31.2512C117.835 30.932 118.662 30.4401 119.372 29.8032Z" fill="black"/>
<path d="M129.117 70.649C130.4 70.6465 131.659 70.308 132.769 69.6671C133.88 69.0263 134.803 68.1055 135.447 66.9966L131.229 64.5567C130.962 65.0221 130.548 65.386 130.052 65.592C129.556 65.7979 129.007 65.8344 128.488 65.6957C127.969 65.557 127.511 65.251 127.184 64.8251C126.858 64.3992 126.681 63.8773 126.681 63.3405V62.9215C128.105 62.4162 129.338 61.4829 130.21 60.2494C131.082 59.0159 131.552 57.5428 131.554 56.032H126.681C126.681 56.6781 126.425 57.2977 125.968 57.7546C125.511 58.2115 124.891 58.4681 124.245 58.4681C123.599 58.4681 122.979 58.2115 122.522 57.7546C122.066 57.2977 121.809 56.6781 121.809 56.032H116.937C116.938 57.5428 117.408 59.0159 118.28 60.2494C119.152 61.4829 120.385 62.4162 121.809 62.9215V63.3405C121.811 65.2781 122.582 67.1358 123.952 68.5059C125.322 69.876 127.18 70.6467 129.117 70.649Z" fill="black"/>
<path d="M87.4065 79.3176L83.0352 81.4694C85.972 87.4548 89.2952 93.2428 92.9838 98.7966L97.0376 96.0937C93.4668 90.7165 90.2496 85.1126 87.4065 79.3176Z" fill="black"/>
<path d="M85.0544 74.308C83.4919 70.8082 82.6907 68.6193 82.6831 68.5977L78.104 70.2634C78.1387 70.3581 78.9649 72.6204 80.6053 76.2929L85.0544 74.308Z" fill="black"/>
<path d="M87.3371 106.184L82.9009 108.198C85.6166 114.227 89.0379 119.913 93.0929 125.136L96.9317 122.135C93.1141 117.216 89.8934 111.862 87.3371 106.184Z" fill="black"/>
<path d="M80.8059 103.189L85.3567 101.449C82.9997 95.2868 82.1897 90.9602 82.1805 90.9172L79.7843 91.3564L77.3877 91.7936C77.4227 91.9852 78.2742 96.571 80.8059 103.189Z" fill="black"/>
<path d="M94.2974 139.575C86.3286 131.606 83.0605 121.198 83.0273 121.094L78.3682 122.52C78.5119 122.992 81.9971 134.166 90.8514 143.02L94.2974 139.575Z" fill="black"/>
</svg>
