<svg width="156" height="156" viewBox="0 0 156 156" fill="none" xmlns="http://www.w3.org/2000/svg">
<path d="M133.959 99.4891L131.964 87.3082C131.951 87.2252 131.933 87.1428 131.91 87.0616L131.171 84.3523L131.491 84.2639C132.112 84.0902 132.638 83.6776 132.955 83.1165C133.273 82.5554 133.354 81.8915 133.183 81.2702C133.012 80.6489 132.601 80.1208 132.041 79.8016C131.481 79.4824 130.818 79.398 130.196 79.567L129.889 79.6517L126.681 67.8865V48.7233C126.677 45.9165 125.706 43.1968 123.931 41.0226C122.156 38.8484 119.685 37.3527 116.936 36.7876V19.267C116.932 15.4506 115.414 11.7917 112.715 9.09314C110.017 6.39454 106.358 4.87659 102.541 4.87232C100.396 4.87232 98.1492 4.67255 96.0489 5.19694C94.1078 5.68019 92.3329 6.67778 90.911 8.08471C89.8908 9.10066 89.082 10.3086 88.5312 11.6389C87.9804 12.9691 87.6986 14.3953 87.702 15.8351V16.4779L85.5231 20.8359C85.2945 21.2933 85.2156 21.811 85.2976 22.3158C85.3795 22.8205 85.6183 23.2866 85.9799 23.6482L87.702 25.3705V29.234C87.702 29.8801 87.9586 30.4997 88.4155 30.9566C88.8724 31.4135 89.492 31.6702 90.1381 31.6702H97.4466V29.234C97.4466 28.5879 97.19 27.9682 96.7331 27.5114C96.2762 27.0545 95.6566 26.7978 95.0105 26.7978H92.5743V24.3617C92.5743 24.0417 92.5113 23.7249 92.3889 23.4293C92.2665 23.1338 92.087 22.8652 91.8608 22.639L90.6662 21.4443L92.317 18.1427C92.676 17.425 92.5743 16.6095 92.5743 15.8351C92.5724 15.0357 92.7288 14.2439 93.0344 13.5052C93.34 12.7665 93.7887 12.0957 94.3548 11.5313C94.5746 11.3157 94.8099 11.1166 95.0589 10.9356L102.319 18.0745V36.5425H88.8226C86.5712 36.5472 84.3905 37.3294 82.6493 38.7566C80.9081 40.1839 79.7132 42.1687 79.2667 44.3754L77.9573 50.9159L76.6494 44.3751C76.2028 42.1682 75.0077 40.1833 73.2662 38.756C71.5246 37.3288 69.3436 36.5469 67.092 36.5425H60.9041V31.6702H65.7765C66.4226 31.6702 67.0422 31.4135 67.4991 30.9566C67.956 30.4997 68.2126 29.8801 68.2126 29.234V25.3708L69.9353 23.6482C70.297 23.2866 70.5357 22.8205 70.6177 22.3158C70.6997 21.811 70.6207 21.2933 70.3921 20.8359L68.2126 16.4779V15.8351C68.2133 14.3952 67.9302 12.9694 67.3795 11.639C66.8288 10.3087 66.0213 9.09992 65.0032 8.0818C63.985 7.06369 62.7763 6.2562 61.4459 5.7055C60.1156 5.1548 58.6897 4.87168 57.2499 4.87232H53.3733C50.143 4.86445 47.0148 6.0036 44.5459 8.08683C42.077 10.1701 40.4279 13.0621 39.8922 16.2477L34.1593 43.3467C34.0842 43.7015 34.0893 44.0687 34.1742 44.4213C34.2591 44.7739 34.4217 45.1031 34.6501 45.3849C34.8785 45.6667 35.1669 45.8939 35.4943 46.05C35.8217 46.2061 36.1798 46.2871 36.5425 46.2872C37.3572 46.2864 38.1711 46.2319 38.9786 46.1239V67.9127L36.7709 76.7408C35.6559 79.2045 34.8794 81.8079 34.4626 84.4799L30.2885 83.784L34.0341 68.8034C34.0823 68.6102 34.1066 68.4118 34.1063 68.2127V48.7233H29.234V67.9127L25.4671 82.9819L24.7612 82.8641C24.1238 82.7581 23.4704 82.9096 22.9447 83.2853C22.4191 83.6611 22.0642 84.2303 21.9582 84.8677C21.8522 85.5051 22.0038 86.1584 22.3795 86.6841C22.7552 87.2098 23.3244 87.5646 23.9618 87.6706L24.4889 87.7583C24.4052 88.5342 24.3616 99.8828 24.3616 99.8828C24.3616 100.529 24.6183 101.149 25.0752 101.605C25.5321 102.062 26.1517 102.319 26.7978 102.319H34.1063V108.866L12.6138 139.911C12.2552 140.429 12.1112 141.066 12.2121 141.688C12.3131 142.31 12.6511 142.869 13.1553 143.247L22.0978 149.954C22.9994 150.63 24.0882 151.01 25.2147 151.042C26.3412 151.074 27.45 150.757 28.3886 150.133C29.3271 149.509 30.0494 148.61 30.4561 147.559C30.8627 146.508 30.9338 145.357 30.6594 144.264L29.4578 139.457L34.1063 133.776V148.606C34.1063 149.252 34.363 149.872 34.8198 150.329C35.2767 150.786 35.8964 151.042 36.5425 151.042H67.4751C68.6792 151.043 69.8514 150.655 70.8185 149.938C71.7855 149.221 72.4961 148.211 72.8451 147.059C73.1942 145.906 73.1631 144.672 72.7566 143.539C72.3502 142.405 71.5898 141.433 70.5879 140.765L65.7765 137.558V78.549L77.9573 76.6735L92.5743 78.9236V82.3604L83.0038 106.287C82.8654 106.633 82.8082 107.006 82.8367 107.378L85.1635 137.626L80.4568 140.765C79.4543 141.432 78.6932 142.404 78.2861 143.538C77.879 144.671 77.8475 145.905 78.1963 147.058C78.5451 148.211 79.2556 149.22 80.2227 149.938C81.1899 150.656 82.3623 151.043 83.5666 151.042H126.681C127.096 151.042 127.504 150.936 127.867 150.734C128.23 150.532 128.535 150.24 128.753 149.887C128.971 149.534 129.096 149.13 129.114 148.716C129.133 148.301 129.045 147.888 128.859 147.517L124.244 138.286V102.319H131.553C131.906 102.319 132.255 102.242 132.576 102.094C132.896 101.946 133.181 101.729 133.41 101.46C133.638 101.191 133.806 100.875 133.9 100.535C133.995 100.195 134.014 99.8377 133.957 99.4891H133.959ZM103.507 41.4148H114.5C116.438 41.4148 118.297 42.1848 119.668 43.5554C121.038 44.926 121.808 46.785 121.808 48.7233V68.2127C121.808 68.4293 121.837 68.645 121.894 68.854L125.191 80.9456L122.923 81.5702C121.83 77.7037 119.905 73.085 116.936 69.6591L116.889 51.3538C116.888 50.9053 116.774 50.4644 116.557 50.0718C116.34 49.6792 116.028 49.3476 115.649 49.1076L103.507 41.4148ZM106.465 15.3174L100.796 9.74465H102.541C105.065 9.74739 107.486 10.7515 109.271 12.5367C111.056 14.3219 112.061 16.7423 112.064 19.267V36.5425H107.191V17.0532C107.191 16.73 107.127 16.4101 107.002 16.1121C106.877 15.8141 106.694 15.544 106.463 15.3174H106.465ZM84.0447 45.3316C84.2678 44.2281 84.8652 43.2357 85.7359 42.522C86.6065 41.8083 87.6969 41.4172 88.8226 41.4148H90.1381L87.4361 45.0179C86.2752 46.5657 85.5493 48.3957 85.3335 50.3183C85.1177 52.241 85.42 54.1864 86.2089 55.9529L84.8273 62.8577L80.7808 61.6438L84.0447 45.3316ZM92.5743 65.1821L89.5148 64.2639L90.2377 60.6502L92.5743 62.2078V65.1821ZM63.6792 18.119C63.7558 18.3898 63.8561 18.6533 63.9792 18.9065C64.393 19.757 64.8255 20.599 65.2484 21.4449L64.0538 22.6396C63.5971 23.0963 63.3404 23.7157 63.3403 24.3617V26.7978H58.468C57.8219 26.7978 57.2022 27.0545 56.7453 27.5114C56.2885 27.9682 56.0318 28.5879 56.0318 29.234V36.5425H52.8039C53.9701 34.3647 54.6862 31.9746 54.9097 29.5144L55.9599 17.9621L61.0972 11.1129C61.2558 11.2426 61.4086 11.3804 61.5558 11.5264C62.3974 12.3672 62.9746 13.4358 63.2164 14.6005C63.4716 15.843 63.3519 16.9654 63.6792 18.119ZM44.6692 17.2078C44.6762 17.1737 44.6829 17.139 44.6887 17.1046C45.026 15.0461 46.0851 13.1749 47.6765 11.8263C49.2678 10.4777 51.2874 9.73971 53.3733 9.74465H56.0318L51.6467 15.5915C51.3756 15.9529 51.2104 16.3827 51.1695 16.8327L50.0565 29.0744C49.8112 31.9213 48.6685 34.6168 46.7931 36.7726C44.9177 38.9284 42.4063 40.4333 39.6209 41.0704L44.6692 17.2078ZM29.234 97.4467C29.234 97.4467 29.2644 89.0723 29.3104 88.5604L34.1063 89.3601V97.4467H29.234ZM24.9125 137.319C24.6721 137.613 24.5037 137.958 24.4207 138.329C24.3377 138.699 24.3424 139.084 24.4344 139.452L25.9311 145.439C25.9437 145.489 25.9505 145.54 25.9512 145.591C25.9504 145.699 25.9197 145.805 25.8626 145.896C25.8054 145.987 25.7241 146.061 25.6275 146.109C25.531 146.157 25.4231 146.177 25.3157 146.168C25.2084 146.158 25.1058 146.119 25.0194 146.054L17.9545 140.756L34.1063 117.426V126.082L24.9125 137.319ZM39.0606 89.0827C39.2512 84.7414 39.9071 80.775 42.315 76.5906C43.2538 74.8807 44.4231 73.3078 45.7899 71.9159C47.4912 70.2651 49.0437 69.1874 48.4069 66.7647C47.9142 64.8891 47.3411 63.0306 46.8073 61.166L43.851 50.8181V44.7773C45.7325 43.9651 47.4655 42.8451 48.9788 41.4632C48.9962 41.4474 49.012 41.4307 49.0294 41.4148H59.6876L64.3084 47.5759C64.7831 48.2089 65.1523 48.9144 65.4019 49.6652C66.7418 53.6998 64.2545 56.5474 61.6192 59.1815C61.3927 59.4076 61.2129 59.6761 61.0903 59.9717C60.9676 60.2673 60.9043 60.5841 60.9041 60.9042V146.17H38.9786V115.718C38.9786 108.505 38.9394 101.292 38.9744 94.0787C38.9829 92.3411 38.9899 90.6863 39.0606 89.0824V89.0827ZM65.9053 61.7848L66.4007 64.2633L65.7765 64.4509V61.9133L65.9053 61.7848ZM67.8847 144.819C68.0164 144.907 68.1163 145.035 68.1698 145.184C68.2232 145.333 68.2272 145.495 68.1813 145.646C68.1354 145.798 68.0419 145.931 67.9147 146.025C67.7876 146.119 67.6334 146.17 67.4751 146.17H65.7765V143.413L67.8847 144.819ZM65.7765 69.5376L67.3798 69.0562C67.7585 70.5337 68.4799 71.9013 69.4855 73.0481L65.7765 73.6191V69.5376ZM76.0693 71.4537C75.0828 71.3 74.1672 70.8476 73.4458 70.1575C72.7243 69.4674 72.2317 68.5728 72.0344 67.5942L69.8035 56.4362C70.3585 55.0165 70.6452 53.5061 70.6488 51.9817C70.6477 49.3397 69.7909 46.7691 68.2066 44.6549L65.7765 41.4148H67.092C68.2179 41.4168 69.3085 41.8076 70.1795 42.5211C71.0504 43.2347 71.6481 44.2271 71.8715 45.3306L75.5683 63.8181C75.655 64.2516 75.858 64.6533 76.1556 64.9802C76.4532 65.3071 76.8341 65.5469 77.2575 65.6739L92.5743 70.2688V73.994L76.0693 71.4537ZM83.0483 145.96C82.9702 145.883 82.9102 145.789 82.8728 145.686C82.8353 145.583 82.8213 145.473 82.8317 145.364C82.8421 145.255 82.8767 145.149 82.933 145.055C82.9892 144.961 83.0658 144.881 83.157 144.82L89.0522 140.888C89.4123 140.648 89.7019 140.317 89.8913 139.928C90.0808 139.539 90.1631 139.106 90.1299 138.675L87.737 107.57L92.5743 95.4798V146.17H83.5666C83.4708 146.171 83.3758 146.152 83.2871 146.116C83.1984 146.08 83.1176 146.027 83.0495 145.96H83.0483ZM97.4466 146.17V60.9042C97.4466 60.5031 97.3476 60.1083 97.1584 59.7547C96.9692 59.4011 96.6956 59.0997 96.3619 58.8773L92.8006 56.502C92.124 56.051 91.5466 55.4667 91.1036 54.785C90.6606 54.1032 90.3613 53.3382 90.224 52.5368C90.0867 51.7354 90.1144 50.9144 90.3052 50.124C90.4961 49.3337 90.8461 48.5905 91.334 47.9401L95.6168 42.2297L111.582 52.2079L107.316 65.006C107.159 65.4787 107.15 65.9884 107.291 66.4663C107.432 66.9442 107.716 67.3674 108.105 67.6788C111.607 70.5032 114.436 74.0727 116.385 78.1277C118.334 82.1827 119.354 86.6212 119.372 91.1202V138.861C119.372 139.24 119.46 139.613 119.629 139.951L122.739 146.17H97.4466ZM124.244 97.4467V91.1202C124.244 89.5243 124.136 87.9303 123.921 86.349L126.473 85.6465L127.175 88.2206L128.685 97.4476L124.244 97.4467Z" fill="black"/>
<path d="M104.755 73.0848H102.318C102.318 73.5127 102.434 83.7403 112.472 98.7979L116.526 96.095C107.394 82.3965 107.192 73.1646 107.191 73.0732L104.755 73.0848Z" fill="black"/>
<path d="M102.31 107.922C104.629 115.142 108.074 121.951 112.517 128.097L116.482 125.265C112.337 119.537 109.123 113.191 106.957 106.46L102.31 107.922Z" fill="black"/>
<path d="M105.703 101.792C104.778 97.6197 104.755 95.0313 104.755 95.0042L99.8823 95.0102C99.8823 95.1342 99.8945 98.1029 100.946 102.846L105.703 101.792Z" fill="black"/>
<path d="M54.668 78.7899L50.0886 77.1248C47.0221 85.5582 43.4272 91.9896 39.6929 95.724L43.1382 99.1693C47.4332 94.8744 51.3125 88.0178 54.668 78.7899Z" fill="black"/>
<path d="M51.6953 72.3587L56.3463 73.8113C57.7017 69.471 58.3817 66.4321 58.41 66.3049L53.6537 65.2476C53.647 65.2768 52.9865 68.2288 51.6953 72.3587Z" fill="black"/>
<path d="M42.126 137.141L43.8508 138.861L45.5735 140.584C45.8862 140.271 53.2931 132.778 58.2936 120.277L53.7696 118.467C49.1598 129.992 42.1957 137.071 42.126 137.141Z" fill="black"/>
<path d="M104.755 124.231L102.318 124.245H99.8823C99.8823 124.692 100.004 135.299 110.601 143.247L113.525 139.349C104.948 132.916 104.759 124.583 104.755 124.231Z" fill="black"/>
<path d="M50.3799 102.436C47.7166 109.653 44.8635 114.915 42.1289 117.649L45.5743 121.095C53.2713 113.398 58.1903 93.9876 58.3946 93.1651L53.6678 91.9829C53.6572 92.0307 52.447 96.8336 50.3799 102.436Z" fill="black"/>
</svg>
