<svg width="156" height="156" viewBox="0 0 156 156" fill="none" xmlns="http://www.w3.org/2000/svg">
<path d="M121.808 113.491V106.604C122.263 106.648 122.722 106.674 123.185 106.674C127.955 106.674 132.009 104.297 133.767 100.47C133.993 99.9772 134.049 99.4226 133.924 98.8944C133.8 98.3663 133.503 97.8948 133.08 97.5548L120.091 87.1125C118.966 84.8037 117.336 82.7778 115.321 81.1846C113.307 79.5914 110.96 78.4719 108.454 77.9089L98.5102 75.6981L77.5232 59.3758L70.6645 42.9134L76.2929 40.099C78.9958 38.759 81.2692 36.6885 82.8552 34.1222C84.4412 31.5559 85.2763 28.5966 85.266 25.5798C85.266 22.3392 84.5056 19.1439 83.0457 16.2508C81.5859 13.3577 79.4675 10.8476 76.8608 8.92236C74.2541 6.99715 71.232 5.71059 68.0375 5.16616C64.843 4.62173 61.5653 4.83463 58.4681 5.78773C56.9441 5.31714 55.3701 5.02658 53.7785 4.92198C53.3379 4.88848 52.8793 4.87234 52.3777 4.87234C47.0995 4.85478 42.017 6.86903 38.1838 10.4975C34.3505 14.126 32.0606 19.0905 31.7887 24.3617H41.415V19.4893H37.7461C38.5358 17.5738 39.7032 15.8369 41.1786 14.3822C41.4223 14.1386 41.6753 13.9072 41.932 13.6818L44.0978 18.1214L45.529 17.4238C44.4201 19.9998 43.8492 22.7752 43.8511 25.5798V29.234H24.3618C23.7157 29.234 23.096 29.4907 22.6392 29.9475C22.1823 30.4044 21.9256 31.0241 21.9256 31.6702V34.1063C21.9285 36.6899 22.9561 39.1668 24.783 40.9937C26.6098 42.8205 29.0867 43.8481 31.6703 43.851V46.2872C31.6702 46.6654 31.7584 47.0385 31.9276 47.3768L39.2361 61.9938C39.4384 62.3984 39.7494 62.7387 40.1343 62.9765C40.5191 63.2143 40.9626 63.3403 41.415 63.3403H48.7235V75.5212C47.0139 75.5225 45.3348 75.9734 43.8545 76.8286C42.3742 77.6837 41.1448 78.9132 40.2897 80.3935H29.2341C28.588 80.3935 27.9684 80.6502 27.5115 81.107C27.0546 81.5639 26.798 82.1836 26.798 82.8297V90.1382C26.7979 90.4581 26.8609 90.7749 26.9834 91.0705C27.1058 91.3661 27.2852 91.6346 27.5114 91.8609L29.2341 93.5835V101.157L26.5211 100.072C25.1617 99.5335 23.9962 98.5977 23.1764 97.3868C22.3567 96.1759 21.9208 94.7461 21.9256 93.2839V77.9573C21.9272 76.6656 22.441 75.4272 23.3544 74.5138C24.2678 73.6004 25.5062 73.0865 26.798 73.085H43.8511V68.2127H26.798C24.2144 68.2156 21.7375 69.2432 19.9106 71.07C18.0838 72.8969 17.0562 75.3738 17.0533 77.9573V93.2839C17.0453 95.7207 17.7717 98.1033 19.1378 100.121C20.5039 102.139 22.4463 103.699 24.7117 104.596L30.7656 107.017C31.1352 107.165 31.5354 107.22 31.9313 107.177C32.3271 107.135 32.7064 106.996 33.0361 106.773C33.3658 106.549 33.6357 106.249 33.8223 105.897C34.0089 105.545 34.1065 105.153 34.1065 104.755V92.5743C34.1065 92.2544 34.0435 91.9376 33.921 91.6421C33.7986 91.3465 33.6192 91.0779 33.393 90.8517L31.6703 89.129V85.2658H38.9788V100.594C38.9709 103.03 39.6972 105.412 41.0631 107.43C42.429 109.447 44.371 111.006 46.636 111.904L52.6911 114.326C53.0607 114.474 53.4609 114.529 53.8568 114.486C54.2526 114.443 54.6319 114.304 54.9616 114.081C55.2913 113.858 55.5612 113.557 55.7478 113.206C55.9344 112.854 56.032 112.462 56.032 112.064V99.8829C56.032 99.5629 55.969 99.2461 55.8465 98.9506C55.7241 98.655 55.5447 98.3864 55.3185 98.1602L53.5958 96.4378V92.5743H57.9745L61.6047 98.0161C63.3256 100.603 65.9724 102.432 69.0006 103.128L95.098 109.149C95.5899 114.714 98.1698 119.886 102.319 123.626V128.418L91.2242 146.17H83.398C83.9237 145.115 84.7789 144.259 85.8342 143.734L86.3491 143.478C86.8228 143.243 87.207 142.859 87.4436 142.386L94.7521 127.769C94.9807 127.312 95.0596 126.794 94.9777 126.289C94.8957 125.784 94.657 125.318 94.2953 124.957C90.4361 121.099 88.1094 115.972 87.7481 110.527L82.8864 110.85C83.2856 116.864 85.6587 122.579 89.6374 127.107L83.4492 139.483C81.7871 140.356 80.3962 141.669 79.428 143.277C78.4597 144.886 77.9511 146.729 77.9575 148.606C77.9575 149.252 78.2141 149.872 78.671 150.329C79.1279 150.786 79.7475 151.042 80.3936 151.042H92.5745C92.9876 151.042 93.394 150.937 93.7554 150.737C94.1168 150.537 94.4213 150.248 94.6403 149.897L106.821 130.408C107.063 130.021 107.192 129.573 107.191 129.117V126.966C107.212 126.977 107.232 126.989 107.252 126.999L113.495 130.119L107.904 139.435C106.217 140.299 104.803 141.614 103.817 143.232C102.831 144.851 102.313 146.711 102.319 148.606C102.319 149.252 102.576 149.872 103.033 150.329C103.49 150.786 104.109 151.042 104.755 151.042H116.936C117.337 151.042 117.732 150.943 118.086 150.754C118.439 150.565 118.741 150.291 118.963 149.958L133.58 128.032C133.892 127.564 134.033 127.001 133.977 126.441C133.922 125.88 133.674 125.356 133.275 124.958L121.808 113.491ZM123.185 101.801C122.724 101.799 122.264 101.762 121.808 101.691V94.745L128.276 99.9438C126.906 101.288 124.884 101.801 123.185 101.801ZM67.8778 36.6394C68.1004 35.8134 68.213 34.9617 68.2128 34.1063V31.6702C68.2128 31.0241 67.9561 30.4044 67.4993 29.9475C67.0424 29.4907 66.4227 29.234 65.7766 29.234H63.3405V25.5798C63.3405 24.6106 63.7255 23.6811 64.4108 22.9958C65.0961 22.3105 66.0255 21.9255 66.9947 21.9255C67.9639 21.9255 68.8933 22.3105 69.5787 22.9958C70.264 23.6811 70.649 24.6106 70.649 25.5798C70.6446 29.2063 69.8003 32.7826 68.1823 36.0282L67.8778 36.6394ZM46.0699 11.0508C47.6843 10.3506 49.4048 9.9262 51.1596 9.79523V9.81015C49.7519 11.007 48.5093 12.3854 47.4643 13.9093L46.0699 11.0508ZM48.7235 25.5798C48.7235 25.1696 48.7442 24.7643 48.7749 24.3617H53.5958V19.4893H49.9415C50.8854 17.2406 52.3336 15.239 54.1744 13.6392L56.2625 18.0885L60.6738 16.0178L58.329 11.0237C59.9204 10.3412 61.6137 9.92648 63.3405 9.79614V14.617H68.2128V10.175C70.2626 10.6616 72.1942 11.554 73.8933 12.7996L71.3624 15.3305L74.8078 18.7759L77.3387 16.245C79.3261 18.9513 80.3965 22.222 80.3936 25.5798C80.4009 27.691 79.8163 29.7621 78.7064 31.558C77.5964 33.354 76.0054 34.803 74.1138 35.7407L73.5096 36.0428C74.8342 32.7133 75.5168 29.1631 75.5213 25.5798C75.5213 23.3184 74.623 21.1496 73.0239 19.5506C71.4249 17.9515 69.2561 17.0532 66.9947 17.0532C64.7333 17.0532 62.5645 17.9515 60.9655 19.5506C59.3665 21.1496 58.4681 23.3184 58.4681 25.5798V29.234H48.7235V25.5798ZM26.798 34.1063H31.6703V38.9787C30.3785 38.9771 29.1401 38.4633 28.2267 37.5499C27.3133 36.6365 26.7995 35.3981 26.798 34.1063ZM115.632 146.17H107.761C108.286 145.115 109.141 144.259 110.197 143.734L110.711 143.478C111.128 143.271 111.477 142.949 111.716 142.55L119.025 130.369C119.198 130.081 119.309 129.761 119.352 129.428C119.395 129.095 119.369 128.757 119.275 128.435C119.181 128.112 119.022 127.813 118.807 127.555C118.592 127.297 118.326 127.087 118.025 126.937L109.432 122.64C106.719 120.987 104.353 118.824 102.463 116.271C100.575 113.678 99.883 110.403 99.883 107.191V95.0105H95.0106V104.129L70.0959 98.3803C68.2784 97.9628 66.6898 96.8651 65.6566 95.3126L63.8295 92.5743H73.0851C73.4633 92.5743 73.8363 92.4863 74.1746 92.3172C74.5129 92.148 74.8071 91.9024 75.0341 91.5999L82.3426 81.8552L78.4447 78.9318L71.867 87.702H51.1596C50.5135 87.702 49.8939 87.9587 49.437 88.4156C48.9801 88.8724 48.7235 89.4921 48.7235 90.1382V97.4467C48.7234 97.7666 48.7864 98.0834 48.9089 98.379C49.0313 98.6746 49.2107 98.9431 49.4369 99.1694L51.1596 100.892V108.465L48.4454 107.38C47.0864 106.841 45.9212 105.906 45.1017 104.695C44.2822 103.485 43.8464 102.056 43.8511 100.594V85.2658C43.8527 83.9741 44.3665 82.7357 45.2799 81.8223C46.1933 80.9089 47.4317 80.395 48.7235 80.3935H65.7766V75.5212H53.5958V46.2872H48.7235V58.468H42.9205L36.5426 45.7119V34.1063H63.3405C63.3389 35.3981 62.8251 36.6365 61.9117 37.5499C60.9983 38.4633 59.7599 38.9771 58.4681 38.9787H53.5958V43.851H58.4681C60.7903 43.8522 63.0359 43.0202 64.7967 41.5062C64.8104 41.5367 64.8271 41.5689 64.8402 41.6015L73.2724 61.84C73.4342 62.2281 73.6936 62.5678 74.0255 62.826L95.951 79.8792C96.2357 80.1005 96.5661 80.2559 96.9181 80.3341L107.397 82.6637C109.262 83.0824 111.004 83.9326 112.481 85.146C113.959 86.3595 115.131 87.9024 115.905 89.6509C116.588 91.1949 116.939 92.8653 116.936 94.5537V114.5C116.936 114.82 116.999 115.137 117.122 115.432C117.244 115.728 117.423 115.996 117.65 116.223L128.418 126.991L115.632 146.17Z" fill="black"/>
<path d="M46.2874 41.4148H41.415V46.2871H46.2874V41.4148Z" fill="black"/>
</svg>
