<svg width="156" height="156" viewBox="0 0 156 156" fill="none" xmlns="http://www.w3.org/2000/svg">
<path d="M138.861 94.1273V79.2606C138.87 74.9454 137.669 70.714 135.394 67.0472C137.878 68.1749 139.985 69.9936 141.464 72.2861C142.943 74.5786 143.73 77.2482 143.733 79.9762V85.6829C143.748 90.7383 145.755 95.5842 149.319 99.1693L152.765 95.7239C150.111 93.0548 148.616 89.4469 148.606 85.6829V79.9762C148.599 74.9792 146.634 70.1839 143.131 66.6198C139.629 63.0557 134.869 61.0069 129.873 60.9132C125.8 57.7489 120.79 56.0314 115.632 56.0318H96.5058C92.3273 47.8576 86.1213 40.8922 78.4815 35.8018C70.8417 30.7115 62.0237 27.6664 52.8708 26.9579L55.0901 23.1529C55.306 22.7828 55.4205 22.3622 55.422 21.9337C55.4234 21.5052 55.3118 21.0838 55.0984 20.7122C54.885 20.3406 54.5773 20.0319 54.2065 19.8171C53.8356 19.6024 53.4147 19.4893 52.9862 19.4893C52.9862 19.4893 46.3689 19.4893 40.8538 19.4844H40.8303C35.5463 19.4814 30.3893 21.1039 26.0589 24.1317L25.8872 24.2513C23.2898 26.0583 21.1436 28.4395 19.6154 31.2101C18.0871 33.9807 17.2178 37.0662 17.0749 40.2271L5.78544 49.2571C5.3963 49.5684 5.11199 49.9915 4.97085 50.4695C4.82971 50.9474 4.83853 51.4571 4.99612 51.9299L7.43229 59.2384C7.59403 59.7235 7.90436 60.1455 8.31931 60.4445C8.73426 60.7435 9.23278 60.9043 9.74421 60.9041L9.51034 61.0545C8.92407 61.2707 8.44329 61.7039 8.16739 62.2645C7.89149 62.8252 7.84156 63.4704 8.02793 64.0668L9.55054 68.9392C9.70538 69.4347 10.0145 69.8678 10.4328 70.1754C10.8511 70.4829 11.3567 70.6488 11.8759 70.6488H18.2544L35.6781 94.4084C40.1937 100.542 46.7846 104.825 54.2234 106.46L51.9672 110.072L33.2508 117.091C32.9109 117.218 32.6038 117.42 32.3519 117.682C32.1 117.943 31.9097 118.257 31.7949 118.602L29.9138 124.244H19.4889V122.383L23.8469 113.668L36.3797 104.268L33.4563 100.37L20.4633 110.115C20.1608 110.342 19.9153 110.636 19.7462 110.974L14.8739 120.719C14.7046 121.057 14.6165 121.43 14.6165 121.808V126.681C14.6165 127.327 14.8732 127.946 15.3301 128.403C15.787 128.86 16.4066 129.117 17.0527 129.117H31.6697C32.181 129.117 32.6794 128.956 33.0942 128.657C33.5091 128.358 33.8193 127.936 33.981 127.451L36.0496 121.245L54.4506 114.345C54.9518 114.157 55.3771 113.809 55.6608 113.355L58.4675 108.866V120.506L54.2317 123.329C53.2857 123.958 52.5101 124.812 51.974 125.813C51.4379 126.815 51.1579 127.934 51.159 129.07V133.989C51.159 134.635 51.4157 135.255 51.8726 135.712C52.3295 136.169 52.9491 136.425 53.5952 136.425H70.6484C71.2116 136.425 71.7574 136.23 72.1929 135.873C72.6285 135.516 72.9269 135.019 73.0373 134.467C73.0373 134.467 77.9569 109.788 77.9569 109.627V107.191H87.7015C87.9181 107.191 112.817 100.431 112.817 100.431L113.012 101.115C113.836 104.028 115.261 106.736 117.196 109.064C119.13 111.392 121.531 113.288 124.244 114.631V118.363L111.054 131.553H102.319V129.692C102.317 129.24 102.442 128.796 102.68 128.411C102.918 128.025 103.258 127.715 103.664 127.513L105.844 126.423C106.079 126.306 106.292 126.152 106.477 125.966L111.35 121.094C111.764 120.68 112.015 120.129 112.057 119.544C112.098 118.96 111.928 118.379 111.576 117.91L110.358 116.288C108.178 113.386 106.585 110.086 105.668 106.574L100.955 107.809C102.023 111.904 103.876 115.753 106.409 119.144L103.311 122.242L101.484 123.156C100.267 123.759 99.2441 124.692 98.5305 125.847C97.817 127.002 97.4413 128.334 97.4462 129.692V133.989C97.4462 134.635 97.7029 135.255 98.1597 135.712C98.6166 136.169 99.2363 136.425 99.8824 136.425H112.063C112.383 136.425 112.7 136.362 112.996 136.24C113.291 136.117 113.56 135.938 113.786 135.712L128.403 121.095C128.629 120.869 128.809 120.6 128.931 120.304C129.053 120.009 129.116 119.692 129.116 119.372V116.384C129.92 116.569 130.733 116.708 131.553 116.801V122.739L130.719 123.156C129.502 123.759 128.479 124.692 127.765 125.847C127.051 127.002 126.675 128.334 126.68 129.692V133.989C126.68 134.635 126.937 135.255 127.394 135.712C127.851 136.169 128.47 136.425 129.116 136.425H141.297C141.675 136.425 142.048 136.337 142.387 136.168C142.725 135.999 143.019 135.753 143.246 135.451L150.555 125.706C150.871 125.284 151.042 124.772 151.042 124.244V109.627C151.042 109.057 150.842 108.506 150.477 108.068L138.861 94.1273ZM13.368 64.8245L16.9005 63.5217C17.7601 63.2227 18.4862 62.629 18.9498 61.8457C19.4134 61.0624 19.5847 60.1403 19.4333 59.2428C19.2818 58.3453 18.8175 57.5304 18.1225 56.9426C17.4275 56.3548 16.5469 56.0321 15.6367 56.0318H11.5001L10.6882 53.5956H17.0527V48.7233H14.2529L20.3434 43.8509H29.2335V52.7125L18.3478 65.7764H13.667L13.368 64.8245ZM39.6058 91.5273L22.5801 68.3085L33.5428 55.1553C33.9071 54.7173 34.1064 54.1654 34.1059 53.5956V41.4148C34.1059 40.7686 33.8492 40.149 33.3923 39.6921C32.9355 39.2353 32.3158 38.9786 31.6697 38.9786H22.0773C22.3778 36.8327 23.1186 34.772 24.2531 32.9259C25.3876 31.0798 26.8914 29.4881 28.6702 28.2506L28.8422 28.1309C32.3563 25.6728 36.5415 24.3552 40.83 24.3567H40.8495C43.5144 24.3591 46.4356 24.3604 48.7448 24.361L46.6186 28.0064C46.4027 28.3766 46.2882 28.7972 46.2868 29.2257C46.2854 29.6543 46.397 30.0756 46.6104 30.4472C46.8239 30.8189 47.1316 31.1276 47.5025 31.3423C47.8734 31.557 48.2943 31.6701 48.7229 31.6701C57.2822 31.6701 65.6909 33.921 73.1056 38.1969C80.5203 42.4729 86.6802 48.6235 90.9672 56.0318H70.6484C70.1665 56.0317 69.6954 56.1746 69.2948 56.4424C68.8941 56.7101 68.5819 57.0906 68.3975 57.5358C68.2131 57.981 68.1649 58.4709 68.259 58.9435C68.3531 59.4161 68.5852 59.8502 68.926 60.1909L69.5786 60.8435C73.7419 64.9972 77.0128 69.9575 79.1908 75.4203L79.6628 76.6L77.9429 77.2879C72.8155 79.344 67.3415 80.3982 61.8173 80.3934H60.9037C60.2576 80.3934 59.638 80.6501 59.1811 81.107C58.7242 81.5638 58.4675 82.1835 58.4675 82.8296V102.205C54.7491 101.854 51.1468 100.721 47.8965 98.8812C44.6463 97.0411 41.8214 94.5351 39.607 91.5273H39.6058ZM146.17 123.432L140.079 131.553H131.553V129.692C131.551 129.24 131.676 128.796 131.914 128.411C132.152 128.025 132.492 127.715 132.898 127.513L135.078 126.423C135.483 126.221 135.823 125.91 136.061 125.525C136.299 125.14 136.425 124.697 136.425 124.244V114.5C136.425 113.854 136.168 113.234 135.711 112.777C135.254 112.32 134.635 112.064 133.989 112.064C130.307 112.063 126.726 110.864 123.786 108.648C120.847 106.431 118.709 103.318 117.697 99.778C116.786 96.0949 116.806 92.2429 117.756 88.5695L113.068 87.2403C111.966 91.126 111.742 93.8648 111.803 95.6563L87.3754 102.319H77.9569V90.1381H73.0845V109.386L68.651 131.553H56.0314V129.07C56.031 128.736 56.1132 128.407 56.2708 128.113C56.4283 127.818 56.6563 127.567 56.9343 127.383L62.2552 123.835C62.5888 123.613 62.8624 123.311 63.0516 122.958C63.2409 122.604 63.3399 122.209 63.3399 121.808V85.242C68.9699 85.0694 74.5257 83.9082 79.7536 81.8116L83.7352 80.2192C84.0322 80.1004 84.303 79.9243 84.532 79.7008C84.761 79.4773 84.9437 79.211 85.0698 78.9169C85.1958 78.6228 85.2627 78.3067 85.2666 77.9868C85.2704 77.6668 85.2113 77.3493 85.0924 77.0522L83.7157 73.6111C81.8825 69.0136 79.3493 64.7272 76.2059 60.9041H115.632C119.953 60.9031 124.136 62.4284 127.442 65.2109C127.849 65.5511 128.243 65.9113 128.613 66.281C130.323 67.9816 131.678 70.0045 132.601 72.2324C133.524 74.4604 133.995 76.8492 133.989 79.2606V95.0104C133.989 95.5804 134.188 96.1323 134.553 96.5702L146.17 110.511V123.432Z" fill="black"/>
<path d="M44.212 39.0058L43.4893 43.8242L52.625 45.1946L53.3478 40.3762L44.212 39.0058Z" fill="black"/>
<path d="M41.4551 51.3544L39.5459 55.8372L47.768 59.3389L49.6772 54.8562L41.4551 51.3544Z" fill="black"/>
<path d="M45.4878 63.9713L42.2144 67.5806L48.7616 73.5187L52.0351 69.9094L45.4878 63.9713Z" fill="black"/>
<path d="M34.4769 66.3755L30.6899 69.4412L35.8669 75.8362L39.6539 72.7706L34.4769 66.3755Z" fill="black"/>
<path d="M46.4753 77.6062L42.7485 80.7446L47.6209 86.5305L51.0955 83.6043L51.3327 83.4883L51.0967 83.6034L51.3476 83.3921L46.4753 77.6062Z" fill="black"/>
<path d="M58.6769 66.0511L56.4316 70.3752L64.3492 74.4863L66.5945 70.1622L58.6769 66.0511Z" fill="black"/>
<path d="M55.1866 53.7417L53.5278 58.323L62.3588 61.5205L64.0176 56.9392L55.1866 53.7417Z" fill="black"/>
<path d="M63.9312 41.4875L62.7495 46.2144L72.4942 48.6505L73.6759 43.9236L63.9312 41.4875Z" fill="black"/>
<path d="M41.4149 29.2339H34.1064V34.1062H41.4149V29.2339Z" fill="black"/>
<path d="M87.7019 90.1382H82.8296V97.4467H87.7019V90.1382Z" fill="black"/>
<path d="M97.4466 90.1382H92.5742V95.0105H97.4466V90.1382Z" fill="black"/>
</svg>
