<svg width="156" height="156" viewBox="0 0 156 156" fill="none" xmlns="http://www.w3.org/2000/svg">
<path d="M151.042 46.7743C151.042 41.5746 147.382 37.5729 141.718 36.5793L140.877 41.3785C145.788 42.2394 146.17 45.7259 146.17 46.7743V63.0485C143.692 62.4636 141.297 60.9842 141.297 58.4682V52.8852H136.425V58.4679C136.415 60.3252 137.017 62.1339 138.139 63.6143L131.726 69.737C131.392 70.0221 131.084 70.3365 130.806 70.6765C130.6 70.6591 130.393 70.6479 130.185 70.6479H119.372C118.524 70.6482 117.678 70.7362 116.848 70.9107L133.275 54.483C133.288 54.4705 133.299 54.4565 133.31 54.4437C133.317 54.4367 133.325 54.4309 133.331 54.4236C137.415 50.0601 139.033 45.6933 138.143 41.4443C137.592 38.82 136.137 36.6545 134.479 34.9464L133.983 29.0409L129.126 29.4252L129.251 31.0044C128.484 30.5781 127.923 30.3193 127.718 30.2282L125.554 29.1468L123 22.8889L118.487 24.7301L118.94 25.841L115.634 24.188L113.383 18.6266L108.714 20.0475L109.023 20.8821L108.741 20.7412L99.6286 9.7175C99.6079 9.69253 99.5869 9.66786 99.5653 9.64381C97.3901 7.21647 94.6101 4.74376 90.521 4.87592C84.9644 5.04402 82.2941 6.44938 79.5583 8.81947C79.1785 9.1485 78.9098 9.5869 78.7889 10.0746C78.6681 10.5623 78.701 11.0754 78.8831 11.5437C79.0652 12.012 79.3877 12.4125 79.8063 12.6904C80.225 12.9683 80.7193 13.1099 81.2215 13.0959L85.4526 12.978L93.1801 22.913L78.018 18.1698C77.4394 17.9888 76.8142 18.0301 76.2644 18.2854C75.7147 18.5408 75.2799 18.992 75.0449 19.5508C74.572 20.6759 74.3305 21.8848 74.3346 23.1053C74.3388 24.3258 74.5886 25.5329 75.0693 26.6548C75.5499 27.7767 76.2514 28.7903 77.1321 29.6353C78.0128 30.4804 79.0545 31.1394 80.1953 31.5733L80.2419 31.5903L117.302 44.8272L114.5 47.5399V45.4515H109.627V52.2603L107.191 54.6206V50.3238H102.319V59.3413L96.3407 65.133C95.9004 64.9893 95.4569 64.8541 95.0102 64.7277V60.2448C95.9391 59.7085 96.6651 58.8807 97.0755 57.8898C97.486 56.8989 97.558 55.8002 97.2804 54.7642C97.0028 53.7282 96.3911 52.8127 95.5402 52.1598C94.6892 51.5068 93.6467 51.1529 92.5741 51.1529C91.5015 51.1529 90.4589 51.5068 89.608 52.1598C88.7571 52.8127 88.1454 53.7282 87.8678 54.7642C87.5902 55.8002 87.6622 56.8989 88.0726 57.8898C88.4831 58.8807 89.209 59.7085 90.1379 60.2448V63.6953C88.5236 63.4679 86.8958 63.3501 85.2656 63.3427V58.4679H80.3932V63.3403H75.5209V58.4679H70.6486V63.3427C69.0184 63.3501 67.3905 63.4679 65.7762 63.6953V60.2448C66.7051 59.7085 67.4311 58.8807 67.8415 57.8898C68.252 56.8989 68.324 55.8002 68.0464 54.7642C67.7688 53.7282 67.1571 52.8127 66.3062 52.1598C65.4552 51.5068 64.4126 51.1529 63.3401 51.1529C62.2675 51.1529 61.2249 51.5068 60.374 52.1598C59.5231 52.8127 58.9114 53.7282 58.6338 54.7642C58.3562 55.8002 58.4282 56.8989 58.8386 57.8898C59.2491 58.8807 59.975 59.7085 60.9039 60.2448V64.7277C60.3929 64.8729 59.8847 65.0267 59.3813 65.1942L56.5188 62.3317V53.5956H51.6465V57.4582L49.2103 55.022V48.7233H44.338V50.1497L40.5348 46.348L70.1951 18.6643C71.0912 17.8343 71.8094 16.8309 72.3061 15.715C72.8028 14.599 73.0677 13.3939 73.0847 12.1725C73.0897 10.9173 72.8469 9.67337 72.3703 8.5121C71.8937 7.35083 71.1926 6.29503 70.3072 5.40518C70.0596 5.15791 69.7743 4.84364 68.7286 4.8744C68.7188 4.8744 68.7097 4.87227 68.7 4.87227C61.8308 4.87414 55.1885 7.33135 49.9719 11.8004L39.4656 20.9166V19.4893H34.5933V25.7889L32.1571 28.2251V26.7978H27.2848V33.0974L25.5621 34.8198C22.5253 37.8635 20.8199 41.9875 20.8199 46.2871C20.8199 50.5867 22.5253 54.7107 25.5621 57.7544C25.5652 57.7575 25.5685 57.7599 25.5716 57.7627L38.6389 70.8315C37.9465 70.711 37.245 70.6499 36.5422 70.6488C36.5422 70.6488 25.3139 70.66 25.1081 70.6774C24.8302 70.3375 24.5224 70.0231 24.1884 69.738L17.7749 63.6143C18.8967 62.134 19.4991 60.3252 19.4891 58.4679V44.4262L21.6679 40.0682C21.8503 39.7035 21.9382 39.2988 21.9236 38.8913C21.909 38.4838 21.7924 38.0865 21.5844 37.7358C21.3764 37.385 21.0836 37.0921 20.733 36.8839C20.3824 36.6757 19.9852 36.5588 19.5777 36.544C17.975 36.4858 15.1448 36.4127 14.1959 36.579C8.5318 37.5726 4.87207 41.5743 4.87207 46.7743V65.7764C4.87207 66.4226 5.12874 67.0422 5.58561 67.4991C6.04248 67.9559 6.66213 68.2126 7.30824 68.2126C9.60714 68.2145 11.8767 67.6962 13.9468 66.6964L20.4514 72.9065C19.2208 74.1856 18.5017 75.8714 18.4303 77.6448C18.3437 77.5934 18.2605 77.5366 18.1812 77.4746L10.7904 70.4186L7.42578 73.9425C7.42578 73.9425 14.9739 81.1462 15.0181 81.1828C16.296 82.2443 17.9046 82.8259 19.5658 82.8272C19.7927 82.8272 20.0202 82.8162 20.247 82.7943C20.9302 83.575 21.7732 84.1997 22.7189 84.6261C23.6647 85.0525 24.691 85.2705 25.7284 85.2655H29.5459C27.8369 86.0073 26.1316 86.7565 24.4299 87.5131C22.8945 88.1992 21.3817 88.8165 20.2455 90.1119C19.311 90.022 18.368 90.118 17.4708 90.3942C16.5735 90.6705 15.7399 91.1217 15.0178 91.7216C14.9736 91.7579 14.931 91.7959 14.8899 91.8352L7.48151 98.905C6.46089 99.7923 5.69725 100.937 5.27037 102.221C4.84349 103.504 4.76904 104.878 5.05478 106.2C4.93387 106.494 4.87179 106.808 4.87207 107.126V126.128C4.87207 131.328 8.5318 135.33 14.1959 136.323C14.9254 136.408 15.66 136.442 16.3942 136.425C17.4868 136.425 18.7116 136.39 19.5777 136.358C19.9851 136.343 20.3824 136.226 20.7329 136.018C21.0835 135.81 21.3762 135.517 21.5842 135.166C21.7922 134.816 21.9089 134.418 21.9235 134.011C21.9381 133.603 21.8502 133.199 21.6679 132.834L19.4891 128.477V114.435C19.4994 112.577 18.8968 110.767 17.7746 109.286C17.7746 109.286 24.8291 102.566 25.1075 102.228C25.3136 102.245 25.5204 102.256 25.7287 102.256H33.6715L26.9721 108.651C25.9515 109.538 25.1878 110.683 24.7607 111.966C24.3336 113.249 24.2588 114.623 24.5441 115.945C24.4232 116.238 24.3611 116.553 24.3614 116.871V135.873C24.3614 141.073 28.0211 145.074 33.6852 146.068C34.4148 146.153 35.1493 146.187 35.8836 146.17C36.9762 146.17 38.201 146.134 39.067 146.103C39.4745 146.088 39.8717 145.971 40.2223 145.763C40.5728 145.554 40.8655 145.262 41.0735 144.911C41.2815 144.56 41.3982 144.163 41.4128 143.756C41.4274 143.348 41.3396 142.943 41.1573 142.579L38.9784 138.222V124.179C38.9888 122.321 38.3862 120.512 37.264 119.031L43.6775 112.91C44.0115 112.625 44.3191 112.311 44.5968 111.971C44.803 111.988 51.9007 111.999 51.9007 111.999C52.2059 112.41 52.5367 112.802 52.8914 113.171C50.2181 114.278 47.9326 116.151 46.3235 118.556C44.7144 120.96 43.854 123.787 43.8507 126.681V135.207C43.8555 139.405 45.5254 143.43 48.494 146.399C51.4626 149.368 55.4876 151.038 59.6858 151.042H63.3401C65.9245 151.042 68.4031 150.016 70.2306 148.188C72.0581 146.361 73.0847 143.882 73.0847 141.298C73.0847 138.713 72.0581 136.235 70.2306 134.407C68.4031 132.58 65.9245 131.553 63.3401 131.553H60.9039V126.681H63.3401C65.3344 126.681 67.2984 126.192 69.0593 125.256C70.8203 124.32 72.3243 122.965 73.4392 121.312L69.4019 118.584C68.7328 119.577 67.8301 120.39 66.7731 120.952C65.7161 121.515 64.5373 121.808 63.3401 121.808H60.9039V116.91C61.1637 116.927 80.6384 116.936 80.6384 116.936C81.2035 119.685 82.6992 122.156 84.8734 123.931C87.0476 125.706 89.7673 126.677 92.5741 126.681H95.0102V131.553H92.5741C89.9896 131.553 87.511 132.58 85.6836 134.407C83.8561 136.235 82.8294 138.713 82.8294 141.298C82.8294 143.882 83.8561 146.361 85.6836 148.188C87.511 150.016 89.9896 151.042 92.5741 151.042H96.2283C100.427 151.038 104.452 149.368 107.42 146.399C110.389 143.43 112.059 139.405 112.063 135.207V126.681C112.06 123.787 111.2 120.96 109.591 118.556C107.981 116.151 105.696 114.278 103.023 113.171C103.377 112.802 103.708 112.411 104.013 112H110.696C110.904 112 111.111 111.988 111.317 111.971C111.595 112.311 111.903 112.626 112.237 112.91L118.65 119.031C117.528 120.512 116.925 122.321 116.936 124.179V138.222L114.757 142.58C114.575 142.945 114.487 143.349 114.501 143.757C114.516 144.164 114.633 144.561 114.841 144.912C115.049 145.263 115.341 145.556 115.692 145.764C116.042 145.972 116.44 146.089 116.847 146.104C120.642 146.242 124.299 146.248 127.494 143.907C128.757 142.984 129.784 141.774 130.489 140.378C131.194 138.981 131.559 137.438 131.553 135.873V116.871C131.553 116.553 131.491 116.239 131.37 115.945C131.656 114.623 131.582 113.249 131.155 111.966C130.728 110.682 129.964 109.537 128.944 108.65L122.244 102.255H130.185C130.394 102.255 130.601 102.244 130.807 102.226C131.084 102.566 131.392 102.881 131.726 103.166L138.14 109.287C137.017 110.767 136.415 112.577 136.425 114.435V128.477L134.246 132.835C134.064 133.2 133.976 133.605 133.991 134.012C134.005 134.42 134.122 134.817 134.33 135.167C134.538 135.518 134.831 135.811 135.181 136.019C135.532 136.227 135.929 136.344 136.336 136.359C137.203 136.39 138.427 136.427 139.52 136.427C140.254 136.443 140.989 136.409 141.718 136.324C147.382 135.331 151.042 131.33 151.042 126.129V107.127C151.042 106.81 150.98 106.495 150.859 106.201C151.145 104.879 151.071 103.505 150.644 102.222C150.217 100.939 149.454 99.7935 148.433 98.9062L141.023 91.8349C140.982 91.7956 140.94 91.7576 140.895 91.7213C140.173 91.1215 139.34 90.6706 138.442 90.3945C137.545 90.1184 136.602 90.0225 135.668 90.1125C134.946 89.2891 134.047 88.6404 133.038 88.2154C132.877 88.0914 126.369 85.2658 126.369 85.2658H130.185C131.223 85.2709 132.25 85.0528 133.196 84.6265C134.142 84.2001 134.985 83.5754 135.669 82.7946C135.895 82.8165 136.122 82.8275 136.348 82.8275C138.01 82.8261 139.618 82.2444 140.896 81.1831C140.94 81.1465 140.983 81.1084 141.025 81.0686L148.432 73.9967C149.453 73.1101 150.217 71.9653 150.644 70.6821C151.071 69.3989 151.145 68.0245 150.859 66.7028C150.98 66.409 151.042 66.0942 151.042 65.7764V46.7743ZM14.8741 42.7614C14.7048 43.0996 14.6167 43.4727 14.6167 43.8509V58.4679C14.6167 60.9839 12.2217 62.4633 9.74441 63.0482V46.7743C9.74441 45.7277 10.1254 42.2498 15.0172 41.3822C15.1283 41.3688 15.3217 41.36 15.5772 41.3551L14.8741 42.7614ZM15.0172 131.521C10.1254 130.653 9.74441 127.175 9.74441 126.129V109.854C12.2217 110.439 14.6167 111.919 14.6167 114.435V129.052C14.6167 129.43 14.7048 129.803 14.8741 130.141L15.5772 131.548C15.3226 131.543 15.1283 131.534 15.0172 131.521ZM13.9468 106.206C12.6245 105.562 11.214 105.119 9.76146 104.89C9.71117 104.463 9.76719 104.03 9.92456 103.63C10.0819 103.23 10.3357 102.875 10.6634 102.596C10.7073 102.56 10.7498 102.522 10.791 102.483L18.1824 95.4292C18.2617 95.3672 18.3449 95.3104 18.4315 95.2589C18.5028 97.0323 19.222 98.718 20.4529 99.9967L13.9468 106.206ZM146.17 126.129C146.17 127.175 145.789 130.653 140.897 131.521C140.786 131.534 140.592 131.543 140.337 131.548L141.04 130.141C141.209 129.803 141.297 129.43 141.297 129.052V114.435C141.297 111.919 143.692 110.439 146.17 109.854V126.129ZM137.275 96.7191C137.394 96.2402 137.464 95.7504 137.484 95.2574C137.571 95.3089 137.654 95.3658 137.733 95.4276L145.124 102.481C145.165 102.52 145.207 102.558 145.252 102.595C145.58 102.873 145.833 103.228 145.991 103.628C146.148 104.029 146.204 104.461 146.154 104.888C144.701 105.117 143.291 105.561 141.969 106.204L135.463 99.9955C136.342 99.0795 136.966 97.9502 137.275 96.7191ZM127.871 35.8512C128.333 36.1432 128.836 36.487 129.347 36.8811C130.907 38.0858 132.872 40.0316 133.376 42.4599C133.807 44.541 133.117 46.8176 131.323 49.2486L124.727 43.2191L127.871 35.8512ZM89.1802 9.83383C89.6388 9.79241 90.1334 9.76318 90.6687 9.74673C92.364 9.69832 93.8439 10.5689 95.9049 12.8608L103.593 22.1608L100.415 24.2791L89.1802 9.83383ZM81.9049 27.0109C81.3789 26.8099 80.899 26.5047 80.4937 26.1138C80.0885 25.7229 79.7663 25.2542 79.5464 24.7359C79.3985 24.3916 79.2967 24.0294 79.2437 23.6585L99.068 29.864C99.4641 29.9879 99.8831 30.0209 100.294 29.9605C100.704 29.9001 101.096 29.7478 101.44 29.515L107.365 25.5008L123.54 33.5886L120.468 40.7853L81.9049 27.0109ZM121.858 47.1958L128.03 52.8398L112.777 68.0908C111.321 69.5521 109.491 70.5845 107.487 71.0751C105.549 69.5592 103.464 68.2431 101.262 67.1468L121.858 47.1958ZM53.1408 15.5C55.2781 13.6684 57.7222 12.2288 60.3603 11.2474L50.7445 19.4893H48.4865L53.1408 15.5ZM42.9101 24.3616H51.6465C52.2281 24.3616 52.7905 24.1536 53.2321 23.7751L68.0994 11.0318C68.1813 11.3782 68.2192 11.7335 68.2124 12.0894C68.2047 12.6561 68.082 13.2154 67.8517 13.7332C67.6214 14.2511 67.2882 14.7168 66.8725 15.102L37.0879 42.9011L30.7292 36.5424L42.9101 24.3616ZM27.4709 40.1739L33.5835 46.2871L27.47 52.4004C26.3069 50.5735 25.6892 48.4528 25.6892 46.2871C25.6892 44.1214 26.3069 42.0007 27.47 40.1739H27.4709ZM30.7302 56.0318L37.0295 49.7322L54.5157 67.2187C51.8246 68.5718 49.3115 70.2532 47.0339 72.2244C46.693 71.9557 46.3677 71.6679 46.0594 71.3623L30.7302 56.0318ZM25.7287 80.3934C24.5953 80.3934 23.2956 79.5307 23.2956 77.7036C23.2956 76.9183 24.1074 75.9755 24.8355 75.6895C25.1201 75.5781 25.4231 75.521 25.7287 75.5211H36.5422C37.5025 75.5184 38.4538 75.7061 39.3411 76.0735C40.2283 76.4408 41.0339 76.9805 41.7112 77.6613C41.752 77.7021 41.7901 77.7456 41.8299 77.7877C41.1976 78.6253 40.6007 79.4939 40.0394 80.3934H25.7287ZM25.7287 97.3827C25.4251 97.3829 25.1242 97.3266 24.8413 97.2164C23.7003 96.7712 23.0246 94.9693 23.5298 93.9044C23.7552 93.4246 24.1316 93.0317 24.6014 92.7859L37.9735 97.2435C37.5073 97.3355 25.7287 97.3827 25.7287 97.3827ZM34.5065 141.264C29.6147 140.398 29.2337 136.92 29.2337 135.873V119.599C31.711 120.184 34.1061 121.663 34.1061 124.179V138.796C34.106 139.174 34.1941 139.547 34.3634 139.886L35.0665 141.292C34.812 141.287 34.6177 141.279 34.5065 141.265V141.264ZM33.4361 115.95C32.1139 115.307 30.7034 114.863 29.2508 114.635C29.2005 114.208 29.2565 113.775 29.4139 113.375C29.5713 112.974 29.8251 112.619 30.1528 112.341C30.1966 112.304 30.2392 112.267 30.2804 112.227L37.6717 105.174C37.7511 105.112 37.8343 105.055 37.9208 105.004C37.9922 106.777 38.7114 108.463 39.9422 109.741L33.4361 115.95ZM45.218 107.127C44.916 107.112 44.6174 107.056 44.3304 106.961C42.6707 106.506 42.7088 104.451 42.9905 103.708C43.0002 103.688 43.0097 103.669 43.0188 103.65C43.2145 103.232 43.5254 102.879 43.9151 102.631C44.3048 102.384 44.7569 102.254 45.2183 102.255H46.229L49.0133 107.127H45.218ZM48.7231 126.681C48.7258 124.521 49.4447 122.423 50.7672 120.715C52.0897 119.008 53.9411 117.787 56.0316 117.244V131.553H48.7231V126.681ZM63.3401 136.425C64.6323 136.425 65.8716 136.939 66.7853 137.852C67.6991 138.766 68.2124 140.005 68.2124 141.298C68.2124 142.59 67.6991 143.829 66.7853 144.743C65.8716 145.657 64.6323 146.17 63.3401 146.17H59.6858C56.9901 146.167 54.3899 145.172 52.3806 143.375C50.3713 141.577 49.0933 139.104 48.7904 136.425H63.3401ZM92.5741 121.808C91.0631 121.807 89.5896 121.337 88.3559 120.465C87.1221 119.593 86.1885 118.36 85.6831 116.936H95.0102V121.808H92.5741ZM96.2283 146.17H92.5741C91.2819 146.17 90.0426 145.657 89.1288 144.743C88.2151 143.829 87.7018 142.59 87.7018 141.298C87.7018 140.005 88.2151 138.766 89.1288 137.852C90.0426 136.939 91.2819 136.425 92.5741 136.425H107.124C106.821 139.104 105.543 141.577 103.534 143.375C101.524 145.172 98.924 146.167 96.2283 146.17ZM107.191 126.681V131.553H99.8826V117.244C101.973 117.787 103.824 119.008 105.147 120.715C106.469 122.423 107.188 124.521 107.191 126.681ZM100.573 108.381C99.9327 109.499 99.0088 110.428 97.8947 111.074C96.7806 111.721 95.5157 112.062 94.2276 112.064H61.6865C60.3984 112.062 59.1335 111.721 58.0194 111.074C56.9053 110.428 55.9814 109.499 55.3409 108.381L48.4021 96.238C48.1047 95.7176 47.6259 95.3251 47.0573 95.1356L31.2107 89.8531L42.3741 85.0688C42.8612 84.8601 43.2669 84.4983 43.5298 84.0383C46.2824 79.2353 50.253 75.2433 55.041 72.4647C59.829 69.6862 65.265 68.2195 70.8008 68.2126H85.1133C90.649 68.2196 96.085 69.6864 100.873 72.4649C105.661 75.2434 109.631 79.2354 112.384 84.0383C112.647 84.4985 113.053 84.8604 113.541 85.0688L124.704 89.8531L108.857 95.1356C108.288 95.3251 107.809 95.7176 107.512 96.238L100.573 108.381ZM113.021 105.277C112.946 105.656 112.776 106.01 112.525 106.305C112.274 106.599 111.952 106.824 111.59 106.959C111.305 107.07 111.002 107.127 110.697 107.127H106.901L109.685 102.255H110.696C112.409 102.255 113.308 103.891 113.021 105.277ZM126.68 135.873C126.68 136.92 126.299 140.398 121.408 141.265C121.296 141.279 121.103 141.287 120.848 141.292L121.551 139.886C121.72 139.547 121.808 139.174 121.808 138.796V124.179C121.808 121.663 124.203 120.184 126.68 119.599V135.873ZM125.635 112.227C125.676 112.267 125.718 112.304 125.763 112.341C126.09 112.619 126.344 112.974 126.501 113.375C126.659 113.775 126.715 114.208 126.665 114.635C125.212 114.863 123.802 115.307 122.479 115.95L115.974 109.742C117.204 108.462 117.923 106.777 117.995 105.004C118.081 105.055 118.164 105.112 118.244 105.174L125.635 112.227ZM131.312 92.7875C131.796 93.0395 132.181 93.4465 132.406 93.9434C132.631 94.4402 132.682 94.9981 132.552 95.5277C132.423 96.0574 132.119 96.5281 131.69 96.8647C131.261 97.2012 130.731 97.384 130.186 97.3839H119.372C118.891 97.3841 118.412 97.3375 117.941 97.2447L131.312 92.7875ZM129.075 80.4065C124.681 80.4065 120.287 80.4038 115.892 80.3983C115.202 79.4013 113.974 78.3833 114.564 77.3044C114.946 76.607 116.765 75.7873 117.53 75.7873C118.845 75.4827 126.734 75.5156 129.321 75.5266C129.975 75.4844 130.631 75.5789 131.247 75.804C131.778 76.0515 132.197 76.4891 132.421 77.0304C132.645 77.5717 132.657 78.1772 132.456 78.7274C132.425 78.8169 132.2 80.4053 129.075 80.4053V80.4065ZM145.254 70.3041C145.209 70.3408 145.166 70.3794 145.124 70.4198L137.735 77.4746C137.655 77.5365 137.572 77.5932 137.486 77.6445C137.414 75.8713 136.694 74.186 135.464 72.9071L141.969 66.6949C143.291 67.3386 144.702 67.7822 146.155 68.011C146.206 68.4378 146.15 68.8705 145.993 69.2704C145.836 69.6703 145.582 70.025 145.254 70.3028V70.3041Z" fill="black"/>
<path d="M90.6252 104.62L92.9201 108.445L97.0981 105.938L94.8032 102.113C93.2634 99.5645 91.1675 97.3969 88.6723 95.772C86.1771 94.1471 83.3469 93.1071 80.3933 92.7296V73.085H75.521V92.7296C72.5671 93.1069 69.7367 94.1469 67.2413 95.7717C64.7458 97.3966 62.6498 99.5644 61.1098 102.113L58.8149 105.938L62.993 108.445L65.2878 104.62C66.393 102.792 67.8792 101.225 69.6451 100.024C71.4111 98.8224 73.4152 98.0162 75.521 97.6598V107.191H80.3933V97.6598C82.4988 98.0164 84.5027 98.8227 86.2684 100.024C88.0341 101.225 89.5202 102.793 90.6252 104.62Z" fill="black"/>
<path d="M58.468 77.9573H53.5957V82.8296H58.468V77.9573Z" fill="black"/>
<path d="M70.6487 77.9573H65.7764V82.8296H70.6487V77.9573Z" fill="black"/>
<path d="M63.3401 87.7019H58.4678V92.5742H63.3401V87.7019Z" fill="black"/>
<path d="M102.319 77.9573H97.4463V82.8296H102.319V77.9573Z" fill="black"/>
<path d="M90.1384 77.9573H85.2661V82.8296H90.1384V77.9573Z" fill="black"/>
<path d="M97.4466 87.7019H92.5742V92.5742H97.4466V87.7019Z" fill="black"/>
</svg>
